<svg viewBox="0 0 35 35" xmlns="http://www.w3.org/2000/svg">
    <path d="M30.466 34.928h.21a4.256 4.256 0 0 0 4.23-3.753l.03-14.18C34.686 7.567 26.965 0 17.476 0 7.832 0 .014 7.82.014 17.463c0 9.542 7.652 17.3 17.155 17.464h13.297z" fill="#fff"/>
    <path d="M17.524 5.948c-5.497 0-10.094 3.853-11.238 9.006a2.603 2.603 0 0 1 0 5.01c1.144 5.154 5.74 9.007 11.238 9.007 2.001 0 3.883-.51 5.522-1.409v1.33h5.99V17.938c.005-.146 0-.33 0-.477 0-6.358-5.154-11.511-11.512-11.511zM12.01 17.459a5.514 5.514 0 1 1 11.028 0 5.514 5.514 0 0 1-11.028 0z" clip-rule="evenodd" fill="#8B44AC" fill-rule="evenodd"/>
    <path d="M7.368 17.452a1.842 1.842 0 1 1-3.684 0 1.842 1.842 0 0 1 3.684 0z" fill="#8B44AC"/>
</svg>
